<?xml version="1.0" encoding="UTF-8" standalone="no"?>
<!-- Created with Inkscape (http://www.inkscape.org/) -->

<svg
   version="1.1"
   id="svg1"
   width="1384.7064"
   height="1384.7064"
   viewBox="0 0 1384.7064 1384.7064"
   sodipodi:docname="colours.svg"
   xml:space="preserve"
   inkscape:version="1.3.1 (91b66b0783, 2023-11-16)"
   xmlns:inkscape="http://www.inkscape.org/namespaces/inkscape"
   xmlns:sodipodi="http://sodipodi.sourceforge.net/DTD/sodipodi-0.dtd"
   xmlns="http://www.w3.org/2000/svg"
   xmlns:svg="http://www.w3.org/2000/svg"><defs
     id="defs1"><clipPath
       clipPathUnits="userSpaceOnUse"
       id="clipPath3"><path
         style="fill:#75ca75;fill-opacity:0.640902;stroke-width:1.84669"
         d="M 1321.2408,1382.6131 C 1158.6654,1365.738 1017.9183,1273.5047 952.12729,1140.728 900.68384,1036.9069 895.96234,921.12592 937.17878,774.16126 c 14.99892,-53.48145 28.3862,-90.99204 70.52002,-197.59521 57.4204,-145.27975 64.5153,-166.08357 92.8971,-272.3859 27.6601,-103.60065 44.572,-144.28199 81.5974,-196.28147 14.0674,-19.756567 49.4949,-55.171353 67.5018,-67.477472 68.803,-47.0206392 149.4326,-52.821074 256.2141,-18.43157 52.785,16.999653 111.0007,42.848612 211.4452,93.886532 84.9771,43.17842 117.2849,57.95652 163.4314,74.7558 65.855,23.97365 109.6067,45.48309 157.8916,77.62333 121.5733,80.92355 204.3387,194.12658 237.4775,324.81161 21.4246,84.49005 23.8004,172.42878 7.0878,262.34845 -12.586,67.71753 -39.0016,146.08974 -67.5338,200.36524 -51.0675,97.1429 -116.6872,150.0179 -226.7958,182.7469 -13.2566,3.9405 -46.1247,13.1072 -73.0402,20.3707 -55.7273,15.0385 -75.3301,20.7742 -157.8916,46.1992 -159.4089,49.0904 -224.2252,65.0108 -304.7027,74.8424 -28.0199,3.423 -109.016,5.0629 -132.0378,2.6733 z"
         id="path3"
         sodipodi:nodetypes="sssssssssssssssssss" /></clipPath><filter
       style="color-interpolation-filters:sRGB"
       inkscape:label="Brilliance"
       id="filter14"
       x="0"
       y="0"
       width="1"
       height="1"><feColorMatrix
         values="1.2 -0.1 -0.1 0 0 -0.1 1.2 -0.1 0 0 -0.1 -0.1 1.2 0 0 0 0 0 1 0 "
         id="feColorMatrix14" /></filter></defs><sodipodi:namedview
     id="namedview1"
     pagecolor="#ffffff"
     bordercolor="#000000"
     borderopacity="0.25"
     inkscape:showpageshadow="2"
     inkscape:pageopacity="0.0"
     inkscape:pagecheckerboard="0"
     inkscape:deskcolor="#d1d1d1"
     inkscape:zoom="0.63957808"
     inkscape:cx="-46.905923"
     inkscape:cy="2499.3039"
     inkscape:window-width="1253"
     inkscape:window-height="995"
     inkscape:window-x="0"
     inkscape:window-y="0"
     inkscape:window-maximized="0"
     inkscape:current-layer="g1" /><g
     inkscape:groupmode="layer"
     inkscape:label="Image"
     id="g1"
     transform="translate(-909.514,0.48158732)"><rect
       style="fill:#032b2b;fill-opacity:1;stroke-width:1.5688;paint-order:stroke markers fill"
       id="rect1"
       width="377.95276"
       height="94.48819"
       x="1006.8053"
       y="1806.5576"
       ry="4.8875627e-14" /><rect
       style="fill:#b8c78a;fill-opacity:1;stroke-width:1.5688;paint-order:stroke markers fill"
       id="rect1-3"
       width="377.95276"
       height="94.48819"
       x="1006.8053"
       y="1901.0458"
       ry="4.8875627e-14" /><rect
       style="fill:#75aa5e;fill-opacity:1;stroke-width:1.5688;paint-order:stroke markers fill"
       id="rect1-1"
       width="377.95276"
       height="94.48819"
       x="1006.8053"
       y="1995.5339"
       ry="4.8875627e-14" /><rect
       style="fill:#75aa5e;fill-opacity:1;stroke-width:1.5688;paint-order:stroke markers fill"
       id="rect1-1-7"
       width="377.95276"
       height="94.48819"
       x="250.89972"
       y="2751.4399"
       ry="4.8875627e-14" /><rect
       style="fill:#488051;fill-opacity:1;stroke-width:1.5688;paint-order:stroke markers fill"
       id="rect1-36"
       width="377.95276"
       height="94.48819"
       x="1006.8053"
       y="2090.0222"
       ry="4.8875627e-14" /><rect
       style="fill:#488051;fill-opacity:1;stroke-width:1.5688;paint-order:stroke markers fill"
       id="rect1-36-6"
       width="377.95276"
       height="94.48819"
       x="250.89972"
       y="2845.9282"
       ry="4.8875627e-14" /><rect
       style="fill:#365c4d;fill-opacity:1;stroke-width:1.5688;paint-order:stroke markers fill"
       id="rect1-18"
       width="377.95276"
       height="94.48819"
       x="1006.8053"
       y="2184.5105"
       ry="4.8875627e-14" /><rect
       style="fill:#365c4d;fill-opacity:1;stroke-width:1.5688;paint-order:stroke markers fill"
       id="rect1-18-0"
       width="377.95276"
       height="94.48819"
       x="628.85254"
       y="2845.9282"
       ry="4.8875627e-14" /><rect
       style="fill:#284041;fill-opacity:1;stroke-width:1.5688;paint-order:stroke markers fill"
       id="rect1-3-7"
       width="377.95276"
       height="94.48819"
       x="1006.8053"
       y="2278.9988"
       ry="4.8875627e-14" /><rect
       style="fill:#1f2933;fill-opacity:1;stroke-width:1.5688;paint-order:stroke markers fill"
       id="rect1-1-9"
       width="377.95276"
       height="94.48819"
       x="1006.8053"
       y="2373.4868"
       ry="4.8875627e-14" /><rect
       style="fill:#173b40;fill-opacity:1;stroke-width:1.5688;paint-order:stroke markers fill"
       id="rect1-36-2"
       width="377.95276"
       height="94.48819"
       x="1006.8053"
       y="2467.9751"
       ry="4.8875627e-14" /><rect
       style="fill:#1b272c;fill-opacity:1;stroke-width:1.5688;paint-order:stroke markers fill"
       id="rect1-5"
       width="377.95276"
       height="94.48819"
       x="1006.8053"
       y="2562.4634"
       ry="4.8875627e-14" /><rect
       style="fill:#152021;fill-opacity:1;stroke-width:1.5688;paint-order:stroke markers fill"
       id="rect1-3-9"
       width="377.95276"
       height="94.48819"
       x="1006.8053"
       y="2656.9517"
       ry="4.8875627e-14" /><rect
       style="fill:#0e211c;fill-opacity:1;stroke-width:1.5688;paint-order:stroke markers fill"
       id="rect1-36-28"
       width="377.95276"
       height="94.48819"
       x="1006.8053"
       y="2751.4399"
       ry="4.8875627e-14" /><rect
       style="fill:#175041;fill-opacity:1;stroke-width:1.5688;paint-order:stroke markers fill"
       id="rect1-12"
       width="377.95276"
       height="94.48819"
       x="1006.8053"
       y="2845.9282"
       ry="4.8875627e-14" /><rect
       style="fill:#124236;fill-opacity:1;stroke-width:1.5688;paint-order:stroke markers fill"
       id="rect1-12-5"
       width="377.95276"
       height="94.48819"
       x="1384.7581"
       y="2845.9282"
       ry="4.8875627e-14" /><rect
       style="fill:#104c44;fill-opacity:1;stroke-width:1.5688;paint-order:stroke markers fill"
       id="rect1-3-93"
       width="377.95276"
       height="94.48819"
       x="1006.8053"
       y="2940.4165"
       ry="4.8875627e-14" /><rect
       style="fill:#123938;fill-opacity:1;stroke-width:1.5688;paint-order:stroke markers fill"
       id="rect1-1-1"
       width="377.95276"
       height="94.48819"
       x="1006.8053"
       y="3034.9045"
       ry="4.8875627e-14" /></g></svg>
