<?xml version="1.0" encoding="UTF-8" standalone="no"?>
<!-- Created with Inkscape (http://www.inkscape.org/) -->

<svg
   version="1.1"
   id="svg1"
   width="3840"
   height="200"
   viewBox="0 0 3840 200"
   sodipodi:docname="jamal.svg"
   xml:space="preserve"
   inkscape:version="1.3.2 (091e20ef0f, 2023-11-25)"
   inkscape:export-filename="jamal.webp"
   inkscape:export-xdpi="96"
   inkscape:export-ydpi="96"
   xmlns:inkscape="http://www.inkscape.org/namespaces/inkscape"
   xmlns:sodipodi="http://sodipodi.sourceforge.net/DTD/sodipodi-0.dtd"
   xmlns="http://www.w3.org/2000/svg"
   xmlns:svg="http://www.w3.org/2000/svg"><defs
     id="defs1"><clipPath
       clipPathUnits="userSpaceOnUse"
       id="clipPath3"><path
         style="fill:#75ca75;fill-opacity:0.640902;stroke-width:1.84669"
         d="M 1321.2408,1382.6131 C 1158.6654,1365.738 1017.9183,1273.5047 952.12729,1140.728 900.68384,1036.9069 895.96234,921.12592 937.17878,774.16126 c 14.99892,-53.48145 28.3862,-90.99204 70.52002,-197.59521 57.4204,-145.27975 64.5153,-166.08357 92.8971,-272.3859 27.6601,-103.60065 44.572,-144.28199 81.5974,-196.28147 14.0674,-19.756567 49.4949,-55.171353 67.5018,-67.477472 68.803,-47.0206392 149.4326,-52.821074 256.2141,-18.43157 52.785,16.999653 111.0007,42.848612 211.4452,93.886532 84.9771,43.17842 117.2849,57.95652 163.4314,74.7558 65.855,23.97365 109.6067,45.48309 157.8916,77.62333 121.5733,80.92355 204.3387,194.12658 237.4775,324.81161 21.4246,84.49005 23.8004,172.42878 7.0878,262.34845 -12.586,67.71753 -39.0016,146.08974 -67.5338,200.36524 -51.0675,97.1429 -116.6872,150.0179 -226.7958,182.7469 -13.2566,3.9405 -46.1247,13.1072 -73.0402,20.3707 -55.7273,15.0385 -75.3301,20.7742 -157.8916,46.1992 -159.4089,49.0904 -224.2252,65.0108 -304.7027,74.8424 -28.0199,3.423 -109.016,5.0629 -132.0378,2.6733 z"
         id="path3"
         sodipodi:nodetypes="sssssssssssssssssss" /></clipPath><filter
       style="color-interpolation-filters:sRGB"
       inkscape:label="Brilliance"
       id="filter14"
       x="0"
       y="0"
       width="1"
       height="1"><feColorMatrix
         values="1.2 -0.10000000000000001 -0.10000000000000001 0 0 -0.10000000000000001 1.2 -0.10000000000000001 0 0 -0.10000000000000001 -0.10000000000000001 1.2 0 0 0 0 0 1 0"
         id="feColorMatrix14" /></filter><clipPath
       clipPathUnits="userSpaceOnUse"
       id="clipPath2"><path
         id="path2"
         style="fill:#dc3545;fill-opacity:0.723027;stroke-width:9.07499;paint-order:stroke markers fill"
         inkscape:transform-center-x="-18.670635"
         inkscape:transform-center-y="-56.629227"
         d="m 4595.7999,223.84131 c -262.4437,112.48283 -228.5473,276.67764 -149.3935,541.37749 79.1535,264.6998 74.5674,369.0634 356.6901,326.0062 282.1227,-43.0571 467.0703,-74.5382 523.6883,-254.06706 47.9355,-151.99758 27.183,-349.79857 -144.0746,-527.56505 C 4970.0547,88.855063 4858.2437,111.35856 4595.7999,223.84131 Z"
         sodipodi:nodetypes="ssssss" /></clipPath><clipPath
       clipPathUnits="userSpaceOnUse"
       id="clipPath4"><path
         sodipodi:type="star"
         style="fill:#252c32;fill-opacity:0.698969;stroke-width:11.3386;stroke-linecap:round;stroke-linejoin:round;paint-order:stroke markers fill"
         id="path5"
         inkscape:flatsided="true"
         sodipodi:sides="5"
         sodipodi:cx="-1114.0216"
         sodipodi:cy="-240.07269"
         sodipodi:r1="312.78833"
         sodipodi:r2="253.05107"
         sodipodi:arg1="0.49074941"
         sodipodi:arg2="1.1190679"
         inkscape:rounded="0.44"
         inkscape:randomized="0.25"
         d="m -854.0411,-42.433104 c -40.68781,136.123168 -117.90656,235.251464 -271.8612,154.851574 -153.9547,-80.399885 -242.8781,-176.09621 -234.7965,-332.40241 8.0816,-156.3062 27.6548,-199.02784 157.9795,-267.23669 130.3247,-68.20886 234.2785,-109.20893 352.84881,-2.65429 118.57032,106.55465 36.5172,311.31865 -4.17061,447.441816 z"
         transform="matrix(-1.4226326,0,0,-1.1703652,2184.1894,305.97206)"
         inkscape:transform-center-x="53.751646"
         inkscape:transform-center-y="-29.180141" /></clipPath><clipPath
       clipPathUnits="userSpaceOnUse"
       id="clipPath4-7"><path
         sodipodi:type="star"
         style="fill:#252c32;fill-opacity:0.698969;stroke-width:11.3386;stroke-linecap:round;stroke-linejoin:round;paint-order:stroke markers fill"
         id="path5-9"
         inkscape:flatsided="true"
         sodipodi:sides="5"
         sodipodi:cx="-1114.0216"
         sodipodi:cy="-240.07269"
         sodipodi:r1="312.78833"
         sodipodi:r2="253.05107"
         sodipodi:arg1="0.49074941"
         sodipodi:arg2="1.1190679"
         inkscape:rounded="0.44"
         inkscape:randomized="0.25"
         d="m -854.0411,-42.433104 c -40.68781,136.123168 -117.90656,235.251464 -271.8612,154.851574 -153.9547,-80.399885 -242.8781,-176.09621 -234.7965,-332.40241 8.0816,-156.3062 27.6548,-199.02784 157.9795,-267.23669 130.3247,-68.20886 234.2785,-109.20893 352.84881,-2.65429 118.57032,106.55465 36.5172,311.31865 -4.17061,447.441816 z"
         transform="matrix(-1.4226326,0,0,-1.1703652,2184.1894,305.97206)"
         inkscape:transform-center-x="53.751646"
         inkscape:transform-center-y="-29.180141" /></clipPath><clipPath
       clipPathUnits="userSpaceOnUse"
       id="clipPath4-7-9"><path
         sodipodi:type="star"
         style="fill:#252c32;fill-opacity:0.698969;stroke-width:11.3386;stroke-linecap:round;stroke-linejoin:round;paint-order:stroke markers fill"
         id="path5-9-2"
         inkscape:flatsided="true"
         sodipodi:sides="5"
         sodipodi:cx="-1114.0216"
         sodipodi:cy="-240.07269"
         sodipodi:r1="312.78833"
         sodipodi:r2="253.05107"
         sodipodi:arg1="0.49074941"
         sodipodi:arg2="1.1190679"
         inkscape:rounded="0.44"
         inkscape:randomized="0.25"
         d="m -854.0411,-42.433104 c -40.68781,136.123168 -117.90656,235.251464 -271.8612,154.851574 -153.9547,-80.399885 -242.8781,-176.09621 -234.7965,-332.40241 8.0816,-156.3062 27.6548,-199.02784 157.9795,-267.23669 130.3247,-68.20886 234.2785,-109.20893 352.84881,-2.65429 118.57032,106.55465 36.5172,311.31865 -4.17061,447.441816 z"
         transform="matrix(-1.4226326,0,0,-1.1703652,2184.1894,305.97206)"
         inkscape:transform-center-x="53.751646"
         inkscape:transform-center-y="-29.180141" /></clipPath></defs><sodipodi:namedview
     id="namedview1"
     pagecolor="#175041"
     bordercolor="#000000"
     borderopacity="0.25"
     inkscape:showpageshadow="false"
     inkscape:pageopacity="0.0"
     inkscape:pagecheckerboard="0"
     inkscape:deskcolor="#175041"
     inkscape:zoom="0.083943503"
     inkscape:cx="-1304.4488"
     inkscape:cy="2823.3275"
     inkscape:window-width="1920"
     inkscape:window-height="1012"
     inkscape:window-x="0"
     inkscape:window-y="0"
     inkscape:window-maximized="1"
     inkscape:current-layer="g1" /><g
     inkscape:groupmode="layer"
     inkscape:label="Image"
     id="g1"
     transform="translate(-2248.1067,-116.04545)"><path
       id="path1-2"
       style="fill-opacity:0.14902;stroke-width:43.7663;stroke-linecap:round;stroke-linejoin:round;paint-order:stroke markers fill"
       inkscape:transform-center-x="-256.55428"
       inkscape:transform-center-y="81.905348"
       d="M 6176.907,500.6064 C 5917.3624,827.69989 4483.2046,1129.0493 3715.0607,903.7424 2946.917,678.43549 2221.4934,934.9848 2065.0902,553.01176 1908.687,171.03878 2814.6937,233.7705 3810.3439,185.92241 4805.9932,138.0742 4831.4907,52.43045 5636.4401,208.4913 6478.534,371.75361 6436.4515,173.51292 6176.907,500.6064 Z"
       sodipodi:nodetypes="ssssss" /></g></svg>
